<svg width="21" height="20" viewBox="0 0 21 20" fill="none" xmlns="http://www.w3.org/2000/svg">
<g id="instagram">
<path id="Combo Shape" fill-rule="evenodd" clip-rule="evenodd" d="M5.3335 0C2.57207 0 0.333496 2.23858 0.333496 5V15C0.333496 17.7614 2.57207 20 5.3335 20H15.3335C18.0949 20 20.3335 17.7614 20.3335 15V5C20.3335 2.23858 18.0949 0 15.3335 0H5.3335ZM16.3335 5C16.8858 5 17.3335 4.55228 17.3335 4C17.3335 3.44772 16.8858 3 16.3335 3C15.7812 3 15.3335 3.44772 15.3335 4C15.3335 4.55228 15.7812 5 16.3335 5ZM15.3335 10C15.3335 12.7614 13.0949 15 10.3335 15C7.57207 15 5.3335 12.7614 5.3335 10C5.3335 7.23858 7.57207 5 10.3335 5C13.0949 5 15.3335 7.23858 15.3335 10ZM10.3335 13C11.9904 13 13.3335 11.6569 13.3335 10C13.3335 8.34315 11.9904 7 10.3335 7C8.67664 7 7.3335 8.34315 7.3335 10C7.3335 11.6569 8.67664 13 10.3335 13Z" fill="#B6B3EB"/>
</g>
</svg>
