<svg width="19" height="16" viewBox="0 0 19 16" fill="none" xmlns="http://www.w3.org/2000/svg">
<g id="twitter">
<path id="Vector" d="M12.6193 0C10.5155 0 8.80996 1.79086 8.80996 4C8.80996 4.33382 8.8489 4.65809 8.92228 4.96808C6.89936 4.96808 3.85239 4.55908 1.30769 2.00961C0.969307 1.67059 0.345337 1.89726 0.368808 2.37567C0.745933 10.0627 4.03802 12.3049 5.73335 12.4444C4.6386 13.5257 3.04835 14.3791 1.44814 14.7622C1.02582 14.8633 0.921488 15.3256 1.33445 15.4599C2.47948 15.8323 4.11842 15.9758 5.0006 16C11.2414 16 16.3139 10.7471 16.4268 4.22229C17.2461 3.68945 17.771 2.5325 18.0659 1.71291C18.1377 1.5133 17.8105 1.28073 17.6147 1.36226C17.0026 1.61708 16.2256 1.67749 15.5637 1.46181C14.865 0.569266 13.8055 0 12.6193 0Z" fill="#B6B3EB"/>
</g>
</svg>
