<svg width="16" height="16" viewBox="0 0 16 16" fill="none" xmlns="http://www.w3.org/2000/svg">
<g id="Star">
<path id="Stroke 1" fill-rule="evenodd" clip-rule="evenodd" d="M9.25371 1.48083L10.7766 4.52312C10.9258 4.82179 11.2139 5.02888 11.548 5.07681L14.9546 5.56717C15.7963 5.68869 16.1312 6.70878 15.5221 7.29327L13.0586 9.66036C12.8166 9.89313 12.7064 10.2277 12.7636 10.5564L13.345 13.8982C13.4882 14.7249 12.6083 15.3556 11.856 14.9645L8.81117 13.3856C8.51268 13.2307 8.15518 13.2307 7.85582 13.3856L4.811 14.9645C4.05869 15.3556 3.17882 14.7249 3.32287 13.8982L3.90337 10.5564C3.96064 10.2277 3.85044 9.89313 3.60834 9.66036L1.1449 7.29327C0.535759 6.70878 0.870698 5.68869 1.71238 5.56717L5.11904 5.07681C5.45311 5.02888 5.74206 4.82179 5.89131 4.52312L7.41328 1.48083C7.78987 0.728599 8.87712 0.728599 9.25371 1.48083Z" fill="#FFB800"/>
</g>
</svg>
